<svg width="88" height="89" viewBox="0 0 88 89" fill="none" xmlns="http://www.w3.org/2000/svg">
<g id="Black and White Collection 10">
<g id="Group" opacity="0.1">
<path id="Vector" opacity="0.1" d="M87.2059 85.6602V87.6946H85.1714" stroke="#20263C" stroke-miterlimit="10"/>
<path id="Vector_2" opacity="0.1" d="M81.2585 87.6948H4.98741" stroke="#20263C" stroke-miterlimit="10" stroke-dasharray="5.77 5.77"/>
<path id="Vector_3" opacity="0.1" d="M3.03442 87.6946H0.999985V85.6602" stroke="#20263C" stroke-miterlimit="10"/>
<path id="Vector_4" opacity="0.1" d="M0.999985 81.7475V5.47656" stroke="#20263C" stroke-miterlimit="10" stroke-dasharray="5.77 5.77"/>
<path id="Vector_5" opacity="0.1" d="M1 3.51637V1.48193H3.03444" stroke="#20263C" stroke-miterlimit="10"/>
<path id="Vector_6" opacity="0.1" d="M6.94055 1.48193H83.2184" stroke="#20263C" stroke-miterlimit="10" stroke-dasharray="5.77 5.77"/>
<path id="Vector_7" opacity="0.1" d="M85.1714 1.48193H87.2059V3.51637" stroke="#20263C" stroke-miterlimit="10"/>
<path id="Vector_8" opacity="0.1" d="M87.2059 7.4292V83.7002" stroke="#20263C" stroke-miterlimit="10" stroke-dasharray="5.77 5.77"/>
</g>
<path id="Vector_9" opacity="0.8" d="M43.8112 16.4012L20.6652 31.7404V31.7692L38.5632 43.6242L43.8112 40.1399V16.4012Z" fill="#A7A9AC"/>
<path id="Vector_10" opacity="0.8" d="M20.6652 55.5224L43.8112 70.8469V47.1083L38.5632 43.6241L20.6652 55.479V55.5224Z" fill="#A7A9AC"/>
<path id="Vector_11" opacity="0.8" d="M69.2269 32.1166L46.0812 16.7775V40.5162L51.3436 44.0003L69.2269 32.1455V32.1166Z" fill="#A7A9AC"/>
<path id="Vector_12" opacity="0.8" d="M46.0812 71.2233L69.2269 55.8839V55.855L51.3436 44.0001L46.0812 47.4843V71.2233Z" fill="#A7A9AC"/>
<path id="Vector_13" opacity="0.8" d="M20.6652 31.7693V55.4791L38.5632 43.6242L20.6652 31.7693Z" fill="#414042"/>
<path id="Vector_14" opacity="0.8" d="M69.2276 55.8551V32.1453L51.3437 44.0002L69.2276 55.8551Z" fill="#414042"/>
</g>
</svg>
