<svg width="49" height="46" viewBox="0 0 49 46" fill="none" xmlns="http://www.w3.org/2000/svg">
<g id="Black and White Collection 12">
<path id="Vector" d="M48.0259 37.3803C47.6344 36.7572 47.1226 36.2182 46.5204 35.7951C45.9183 35.372 45.2378 35.0732 44.5188 34.9161C41.768 34.2764 39.3823 32.5737 37.8829 30.1804C36.3836 27.7869 35.8926 24.8973 36.5172 22.143C36.7573 21.0785 36.6776 19.9667 36.2879 18.9474C35.8982 17.928 35.2161 17.0464 34.3271 16.4135C33.4381 15.7806 32.3818 15.4245 31.291 15.3899C30.2003 15.3553 29.1237 15.6437 28.1963 16.219C27.269 16.7943 26.5323 17.6307 26.0788 18.6233C25.6253 19.616 25.4751 20.7204 25.6473 21.7981C25.8194 22.8757 26.3062 23.8785 27.0464 24.6804C27.7865 25.4823 28.7472 26.0477 29.8076 26.3054C31.1795 26.6148 32.4768 27.192 33.6252 28.0038C34.7735 28.8155 35.7504 29.846 36.4998 31.036C37.2491 32.2261 37.7562 33.5524 37.992 34.9388C38.2279 36.3252 38.1877 37.7445 37.8739 39.1154C37.6881 39.9992 37.7212 40.9149 37.9704 41.7829C38.2197 42.6509 38.6774 43.4447 39.3038 44.0953C39.9301 44.7458 40.7059 45.2334 41.5639 45.5153C42.4218 45.7973 43.3356 45.8651 44.2257 45.713C45.1159 45.5609 45.9553 45.1934 46.6709 44.6425C47.3865 44.0916 47.9564 43.3741 48.3312 42.5524C48.7058 41.7307 48.8739 40.83 48.8208 39.9285C48.7675 39.027 48.4947 38.1522 48.0259 37.3803Z" fill="#414042"/>
<path id="Vector_2" d="M13.9796 31.2336C14.9483 31.7623 16.0528 31.9894 17.1515 31.886C18.2502 31.7825 19.2928 31.3531 20.1458 30.6529C20.9988 29.9526 21.6231 29.0135 21.9385 27.9561C22.2541 26.8986 22.2464 25.771 21.9166 24.7179C21.4985 23.375 21.3496 21.9629 21.4784 20.5624C21.6071 19.1619 22.011 17.8006 22.6669 16.5565C23.3228 15.3125 24.2179 14.2101 25.3007 13.3126C26.3835 12.415 27.6327 11.7401 28.9769 11.3264C30.0194 10.9999 30.942 10.3723 31.6286 9.52261C32.3152 8.67296 32.7352 7.63919 32.8356 6.55138C32.9361 5.46356 32.7126 4.37032 32.1932 3.40932C31.6738 2.44826 30.8817 1.66229 29.9167 1.15035C28.9517 0.638422 27.8568 0.423314 26.7699 0.532225C25.6829 0.641067 24.6524 1.06898 23.808 1.76218C22.9636 2.45531 22.3432 3.38274 22.0247 4.4277C21.7062 5.47265 21.7039 6.58847 22.0181 7.63472C22.8429 10.3358 22.5639 13.2536 21.2425 15.7495C19.921 18.2455 17.6646 20.1162 14.9671 20.9523C13.9022 21.2612 12.9545 21.8825 12.2467 22.736C11.5389 23.5895 11.1036 24.6358 10.9972 25.7394C10.8909 26.8431 11.1183 27.9533 11.65 28.9263C12.1817 29.8993 12.9933 30.6902 13.9796 31.1967V31.2336Z" fill="#414042"/>
<path id="Vector_3" d="M28.2294 30.3291C27.4931 30.3549 26.7695 30.5274 26.1007 30.8364C25.4319 31.1455 24.8315 31.5848 24.3347 32.1288C22.407 34.1906 19.7414 35.4053 16.9208 35.5073C14.1 35.6094 11.3536 34.5904 9.28199 32.6733C8.74673 32.171 8.117 31.7802 7.42936 31.5235C6.74179 31.2669 6.01 31.1495 5.27659 31.1782C4.37384 31.2208 3.49517 31.4837 2.7174 31.9439C1.93957 32.4042 1.28631 33.0478 0.814525 33.8186C0.342671 34.5894 0.0667334 35.464 0.0106508 36.366C-0.045364 37.2681 0.120172 38.1701 0.492949 38.9935C0.865725 39.8167 1.43428 40.5363 2.14912 41.0893C2.86395 41.6424 3.70322 42.0119 4.59376 42.166C5.4843 42.32 6.39906 42.2537 7.25806 41.9729C8.11714 41.6921 8.89436 41.2053 9.52192 40.555C10.4766 39.5213 11.6258 38.6862 12.9037 38.0974C14.1817 37.5087 15.5632 37.1777 16.9692 37.1237C18.3752 37.0698 19.7781 37.2936 21.0974 37.7826C22.4167 38.2717 23.6266 39.0162 24.6577 39.9735C25.329 40.5801 26.1387 41.0129 27.016 41.2341C27.8933 41.4554 28.8114 41.4583 29.69 41.2427C30.5687 41.027 31.3811 40.5994 32.0562 39.9971C32.7314 39.3948 33.2487 38.6363 33.5629 37.7878C33.8771 36.9394 33.9786 36.027 33.8587 35.1302C33.7386 34.2335 33.4007 33.3798 32.8744 32.6438C32.3482 31.9079 31.6497 31.3122 30.8399 30.9086C30.0301 30.5051 29.1338 30.3061 28.2294 30.3291Z" fill="#414042"/>
</g>
</svg>
