<svg width="36" height="37" viewBox="0 0 36 37" fill="none" xmlns="http://www.w3.org/2000/svg">
<g id="ci:instagram" clip-path="url(#clip0_2759_1477)">
<rect id="Rectangle 21" x="0.194412" y="0.503906" width="35.5709" height="35.5709" fill="#F9EFCF"/>
<g id="Group">
<path id="Vector" d="M17.9828 31.6892C14.3368 31.6892 13.907 31.6699 12.4841 31.6077C11.3746 31.5712 10.2794 31.3457 9.24571 30.9407C8.36115 30.5965 7.55783 30.0721 6.88679 29.4008C6.21574 28.7295 5.69163 27.926 5.34772 27.0413C4.95838 26.0038 4.74838 24.9077 4.72671 23.7999C4.64371 22.38 4.64371 21.9146 4.64371 18.2967C4.64371 14.6404 4.66298 14.2135 4.72671 12.7981C4.74885 11.6917 4.95885 10.5971 5.34772 9.56112C5.69123 8.6753 6.2157 7.87087 6.88764 7.19919C7.55958 6.5275 8.36421 6.00334 9.25015 5.66017C10.2856 5.26919 11.3805 5.05864 12.4871 5.03768C13.9025 4.95764 14.3679 4.95764 17.9828 4.95764C21.6585 4.95764 22.0809 4.97691 23.4815 5.03768C24.5901 5.05843 25.6899 5.26889 26.7273 5.66017C27.6131 6.00374 28.4175 6.52804 29.0894 7.19967C29.7613 7.87131 30.2859 8.67554 30.6298 9.56112C31.0255 10.6134 31.2374 11.725 31.2537 12.847C31.3367 14.2669 31.3367 14.7308 31.3367 18.3471C31.3367 21.9635 31.316 22.4378 31.2537 23.8414C31.2316 24.9503 31.0211 26.0474 30.6313 27.0857C30.2865 27.971 29.7614 28.775 29.0893 29.4465C28.4173 30.1181 27.6129 30.6426 26.7273 30.9867C25.6899 31.375 24.5946 31.5855 23.4874 31.6077C22.072 31.6892 21.6081 31.6892 17.9828 31.6892ZM17.9324 7.30384C14.3072 7.30384 13.9307 7.32163 12.5153 7.38536C11.6699 7.39641 10.8328 7.55232 10.0401 7.8463C9.46199 8.0679 8.93672 8.40819 8.49815 8.84522C8.05958 9.28226 7.71746 9.80634 7.49384 10.3837C7.19741 11.184 7.04179 12.0303 7.0329 12.884C6.95434 14.3202 6.95434 14.6967 6.95434 18.2967C6.95434 21.8538 6.96768 22.2851 7.0329 23.7124C7.04624 24.5572 7.20186 25.3946 7.49384 26.1876C7.94737 27.354 8.87221 28.2759 10.0416 28.7235C10.8332 29.0193 11.6702 29.1753 12.5153 29.1844C13.95 29.2674 14.3279 29.2674 17.9324 29.2674C21.5681 29.2674 21.9445 29.2496 23.3481 29.1844C24.1935 29.1742 25.0308 29.0183 25.8233 28.7235C26.3983 28.5002 26.9206 28.1597 27.3569 27.7236C27.7932 27.2875 28.1341 26.7654 28.3577 26.1905C28.6541 25.3902 28.8097 24.5424 28.8186 23.6887H28.8349C28.8987 22.2718 28.8987 21.8939 28.8987 18.273C28.8987 14.6522 28.8824 14.2713 28.8186 12.8559C28.8052 12.0117 28.6494 11.1759 28.3577 10.3837C28.1346 9.80796 27.794 9.285 27.3576 8.84814C26.9213 8.41128 26.3987 8.07009 25.8233 7.8463C25.0303 7.54987 24.1929 7.39573 23.3481 7.38536C21.9149 7.30384 21.5399 7.30384 17.9324 7.30384ZM17.9828 25.1427C16.6275 25.1436 15.3024 24.7425 14.1751 23.9902C13.0477 23.2379 12.1688 22.1682 11.6495 20.9163C11.1302 19.6645 10.9938 18.2867 11.2575 16.9574C11.5213 15.628 12.1734 14.4067 13.1313 13.4479C14.0892 12.4892 15.3099 11.836 16.6391 11.5711C17.9683 11.3062 19.3461 11.4414 20.5984 11.9597C21.8507 12.4779 22.9212 13.3559 23.6745 14.4826C24.4277 15.6093 24.8299 16.934 24.8302 18.2893C24.8279 20.1052 24.1059 21.8461 22.8224 23.1307C21.539 24.4153 19.7987 25.1388 17.9828 25.1427ZM17.9828 13.84C17.1034 13.84 16.2438 14.1008 15.5126 14.5894C14.7813 15.0779 14.2114 15.7724 13.8749 16.5848C13.5384 17.3973 13.4503 18.2913 13.6219 19.1538C13.7935 20.0163 14.2169 20.8086 14.8388 21.4304C15.4606 22.0523 16.2529 22.4757 17.1154 22.6473C17.9779 22.8189 18.8719 22.7308 19.6844 22.3943C20.4968 22.0577 21.1913 21.4878 21.6798 20.7566C22.1684 20.0254 22.4292 19.1658 22.4292 18.2864C22.4264 17.108 21.9571 15.9786 21.1239 15.1453C20.2906 14.3121 19.1612 13.8427 17.9828 13.84ZM25.097 12.7833C24.8872 12.7825 24.6796 12.7404 24.486 12.6594C24.2925 12.5783 24.1168 12.46 23.969 12.3111C23.6705 12.0104 23.5036 11.6033 23.5052 11.1796C23.5068 10.7558 23.6766 10.3501 23.9774 10.0516C24.2781 9.75304 24.6851 9.58622 25.1089 9.58779C25.5326 9.58937 25.9384 9.75921 26.2369 10.0599C26.5354 10.3607 26.7022 10.7677 26.7007 11.1915C26.6991 11.6152 26.5293 12.021 26.2285 12.3195C25.9278 12.618 25.5208 12.7848 25.097 12.7833Z" fill="#F38281"/>
</g>
</g>
<defs>
<clipPath id="clip0_2759_1477">
<rect width="35.5709" height="35.5709" fill="white" transform="translate(0.194412 0.503906)"/>
</clipPath>
</defs>
</svg>
