<svg width="36" height="37" viewBox="0 0 36 37" fill="none" xmlns="http://www.w3.org/2000/svg">
<g id="ci:twitter" clip-path="url(#clip0_2759_1484)">
<rect id="Rectangle 19" x="0.358658" y="0.503906" width="35.5709" height="35.5709" fill="#F9EFCF"/>
<g id="Group">
<path id="Vector" d="M29.9937 10.4164C31.3224 9.62209 32.3165 8.3714 32.7905 6.89782C31.542 7.63861 30.1761 8.16043 28.7517 8.44071C27.791 7.42449 26.5228 6.75245 25.1425 6.52818C23.7622 6.30391 22.3464 6.53986 21.1134 7.19966C19.8805 7.85946 18.8987 8.90648 18.3196 10.1793C17.7404 11.4522 17.5959 12.8802 17.9085 14.2432C15.3798 14.1163 12.9061 13.459 10.6479 12.3141C8.3897 11.1691 6.3975 9.56214 4.8006 7.59738C3.98849 8.99814 3.73999 10.6555 4.10556 12.2328C4.47113 13.8102 5.42336 15.1892 6.76886 16.0899C5.75911 16.0575 4.77174 15.7841 3.8891 15.2926V15.3726C3.88938 16.8413 4.39766 18.2648 5.32774 19.4015C6.25782 20.5382 7.55244 21.3183 8.99205 21.6094C8.05544 21.8642 7.073 21.9017 6.11969 21.719C6.52688 22.9823 7.3183 24.0869 8.3835 24.8787C9.4487 25.6705 10.7345 26.11 12.0615 26.1358C9.80845 27.9041 7.02597 28.8631 4.16181 28.8584C3.65344 28.8584 3.14655 28.8288 2.64263 28.771C5.55117 30.6399 8.93629 31.6319 12.3935 31.6285C14.7747 31.6449 17.1354 31.1879 19.3385 30.2842C21.5416 29.3804 23.5431 28.0479 25.2268 26.364C26.9105 24.6802 28.2429 22.6785 29.1464 20.4754C30.05 18.2722 30.5068 15.9115 30.4902 13.5303C30.4902 13.2546 30.4843 12.9805 30.471 12.7077C31.7166 11.8075 32.7917 10.6923 33.6457 9.41446C32.4852 9.92883 31.2542 10.2665 29.9937 10.4164Z" fill="#F38281"/>
</g>
</g>
<defs>
<clipPath id="clip0_2759_1484">
<rect width="35.5709" height="35.5709" fill="white" transform="translate(0.358658 0.503906)"/>
</clipPath>
</defs>
</svg>
