<svg width="47" height="46" viewBox="0 0 47 46" fill="none" xmlns="http://www.w3.org/2000/svg">
<g id="Black and White Collection 13">
<path id="Vector" opacity="0.95" d="M7.93433 37.8772V45.7776L14.77 41.824V33.9304L7.93433 37.8772Z" fill="#414042"/>
<path id="Vector_2" opacity="0.5" d="M6.83571 37.8772V45.7776L0 41.824V33.9304L6.83571 37.8772Z" fill="#414042"/>
<path id="Vector_3" opacity="0.3" d="M7.93433 29.3462V36.6091L14.2275 32.9743L7.93433 29.3462Z" fill="#414042"/>
<path id="Vector_4" opacity="0.75" d="M6.83567 29.3462L0.54248 32.9743L6.83567 36.6091V29.3462Z" fill="#414042"/>
<path id="Vector_5" opacity="0.95" d="M6.83571 27.4067V19.5063L0 23.4599V31.3536L6.83571 27.4067Z" fill="#414042"/>
<path id="Vector_6" opacity="0.95" d="M7.93433 9.03568V16.9361L14.77 12.9825V5.08887L7.93433 9.03568Z" fill="#414042"/>
<path id="Vector_7" opacity="0.5" d="M6.83571 9.03568V16.9361L0 12.9825V5.08887L6.83571 9.03568Z" fill="#414042"/>
<path id="Vector_8" opacity="0.3" d="M7.93433 0.504639V7.76758L14.2275 4.13272L7.93433 0.504639Z" fill="#414042"/>
<path id="Vector_9" opacity="0.75" d="M6.83567 0.504639L0.54248 4.13272L6.83567 7.76758V0.504639Z" fill="#414042"/>
<path id="Vector_10" opacity="0.75" d="M0.54248 14.5558V21.8255L6.83567 18.1906L0.54248 14.5558Z" fill="#414042"/>
<path id="Vector_11" opacity="0.15" d="M14.2275 14.5558L7.93433 18.1906L14.2275 21.8255V14.5558Z" fill="#414042"/>
<path id="Vector_12" opacity="0.5" d="M7.93433 27.4067V19.5063L14.77 23.4599V31.3536L7.93433 27.4067Z" fill="#414042"/>
<path id="Vector_13" opacity="0.95" d="M23.8707 37.8772V45.7776L30.7064 41.824V33.9304L23.8707 37.8772Z" fill="#414042"/>
<path id="Vector_14" opacity="0.5" d="M22.7721 37.8772V45.7776L15.9364 41.824V33.9304L22.7721 37.8772Z" fill="#414042"/>
<path id="Vector_15" opacity="0.3" d="M23.8707 29.3462V36.6091L30.1639 32.9743L23.8707 29.3462Z" fill="#414042"/>
<path id="Vector_16" opacity="0.75" d="M22.7721 29.3462L16.4789 32.9743L22.7721 36.6091V29.3462Z" fill="#414042"/>
<path id="Vector_17" opacity="0.95" d="M22.7721 27.4067V19.5063L15.9364 23.4599V31.3536L22.7721 27.4067Z" fill="#414042"/>
<path id="Vector_18" opacity="0.95" d="M23.8707 9.03568V16.9361L30.7064 12.9825V5.08887L23.8707 9.03568Z" fill="#414042"/>
<path id="Vector_19" opacity="0.5" d="M22.7721 9.03568V16.9361L15.9364 12.9825V5.08887L22.7721 9.03568Z" fill="#414042"/>
<path id="Vector_20" opacity="0.3" d="M23.8707 0.504639V7.76758L30.1639 4.13272L23.8707 0.504639Z" fill="#414042"/>
<path id="Vector_21" opacity="0.75" d="M22.7721 0.504639L16.4789 4.13272L22.7721 7.76758V0.504639Z" fill="#414042"/>
<path id="Vector_22" opacity="0.75" d="M16.4789 14.5558V21.8255L22.7721 18.1906L16.4789 14.5558Z" fill="#414042"/>
<path id="Vector_23" opacity="0.15" d="M30.1639 14.5558L23.8707 18.1906L30.1639 21.8255V14.5558Z" fill="#414042"/>
<path id="Vector_24" opacity="0.5" d="M23.8707 27.4067V19.5063L30.7064 23.4599V31.3536L23.8707 27.4067Z" fill="#414042"/>
<path id="Vector_25" opacity="0.95" d="M39.5765 37.8772V45.7776L46.419 41.824V33.9304L39.5765 37.8772Z" fill="#414042"/>
<path id="Vector_26" opacity="0.5" d="M38.4847 37.8772V45.7776L31.6422 41.824V33.9304L38.4847 37.8772Z" fill="#414042"/>
<path id="Vector_27" opacity="0.3" d="M39.5765 29.3462V36.6091L45.8697 32.9743L39.5765 29.3462Z" fill="#414042"/>
<path id="Vector_28" opacity="0.75" d="M38.4847 29.3462L32.1915 32.9743L38.4847 36.6091V29.3462Z" fill="#414042"/>
<path id="Vector_29" opacity="0.95" d="M38.4847 27.4067V19.5063L31.6422 23.4599V31.3536L38.4847 27.4067Z" fill="#414042"/>
<path id="Vector_30" opacity="0.95" d="M39.5765 9.03568V16.9361L46.419 12.9825V5.08887L39.5765 9.03568Z" fill="#414042"/>
<path id="Vector_31" opacity="0.5" d="M38.4847 9.03568V16.9361L31.6422 12.9825V5.08887L38.4847 9.03568Z" fill="#414042"/>
<path id="Vector_32" opacity="0.3" d="M39.5765 0.504639V7.76758L45.8697 4.13272L39.5765 0.504639Z" fill="#414042"/>
<path id="Vector_33" opacity="0.75" d="M38.4847 0.504639L32.1915 4.13272L38.4847 7.76758V0.504639Z" fill="#414042"/>
<path id="Vector_34" opacity="0.75" d="M32.1915 14.5558V21.8255L38.4847 18.1906L32.1915 14.5558Z" fill="#414042"/>
<path id="Vector_35" opacity="0.15" d="M45.8697 14.5558L39.5765 18.1906L45.8697 21.8255V14.5558Z" fill="#414042"/>
<path id="Vector_36" opacity="0.5" d="M39.5765 27.4067V19.5063L46.419 23.4599V31.3536L39.5765 27.4067Z" fill="#414042"/>
</g>
</svg>
