<svg width="88" height="88" viewBox="0 0 88 88" fill="none" xmlns="http://www.w3.org/2000/svg">
<g id="Black and White Collection 8">
<g id="Group" opacity="0.1">
<path id="Vector" opacity="0.1" d="M87.2059 85.1714V87.2058H85.1714" stroke="#20263C" stroke-miterlimit="10"/>
<path id="Vector_2" opacity="0.1" d="M81.2653 87.2061H4.98743" stroke="#20263C" stroke-miterlimit="10" stroke-dasharray="5.77 5.77"/>
<path id="Vector_3" opacity="0.1" d="M3.03444 87.2058H1V85.1714" stroke="#20263C" stroke-miterlimit="10"/>
<path id="Vector_4" opacity="0.1" d="M1 81.2652V4.9873" stroke="#20263C" stroke-miterlimit="10" stroke-dasharray="5.77 5.77"/>
<path id="Vector_5" opacity="0.1" d="M1 3.03444V1H3.03444" stroke="#20263C" stroke-miterlimit="10"/>
<path id="Vector_6" opacity="0.1" d="M6.94739 1H83.2184" stroke="#20263C" stroke-miterlimit="10" stroke-dasharray="5.77 5.77"/>
<path id="Vector_7" opacity="0.1" d="M85.1714 1H87.2059V3.03444" stroke="#20263C" stroke-miterlimit="10"/>
<path id="Vector_8" opacity="0.1" d="M87.2059 6.94727V83.2183" stroke="#20263C" stroke-miterlimit="10" stroke-dasharray="5.77 5.77"/>
</g>
<path id="Vector_9" d="M34.9621 25.6826C34.2849 26.1276 33.721 26.7263 33.3157 27.4304C32.9105 28.1345 32.6752 28.9245 32.6288 29.7368V34.3538C32.6752 35.1661 32.9105 35.9561 33.3157 36.6602C33.721 37.3644 34.2849 37.963 34.9621 38.408L39.7897 41.2698C41.0701 42.0139 42.1229 41.4034 42.1229 39.9152V24.2707C42.1229 22.7826 41.0701 22.1722 39.7897 22.9162L34.9621 25.6826Z" fill="#231F20"/>
<path id="Vector_10" d="M34.4591 39.4084C33.7582 39.0574 32.9837 38.8744 32.1982 38.8744C31.4127 38.8744 30.6382 39.0574 29.9373 39.4084L26.0785 41.5978C25.4209 42.0234 24.8734 42.5958 24.4799 43.2692C24.0864 43.9426 23.858 44.698 23.8129 45.4747V50.8386C23.8129 52.2617 24.8352 52.8455 26.0785 52.134L39.156 44.6537C40.3993 43.9422 40.3993 42.7837 39.156 42.0721L34.4591 39.4084Z" fill="#231F20"/>
<path id="Vector_11" d="M51.9963 25.6826C52.6735 26.1276 53.2374 26.7263 53.6426 27.4304C54.0479 28.1345 54.2832 28.9245 54.3295 29.7368V34.3538C54.2832 35.1661 54.0479 35.9561 53.6426 36.6602C53.2374 37.3644 52.6735 37.963 51.9963 38.408L47.1592 41.2698C45.8788 42.0139 44.8354 41.4034 44.8354 39.9152V24.2707C44.8354 22.7826 45.8788 22.1722 47.1592 22.9162L51.9963 25.6826Z" fill="#231F20"/>
<path id="Vector_12" d="M52.0589 39.4084C52.7895 39.0574 53.5967 38.8744 54.4154 38.8744C55.234 38.8744 56.0413 39.0574 56.7718 39.4084L60.7937 41.5978C61.4778 42.0238 62.047 42.5967 62.4555 43.2701C62.8639 43.9435 63.1002 44.6986 63.1453 45.4747V50.8386C63.1453 52.2617 62.0895 52.8455 60.7937 52.134L47.1636 44.6537C45.8677 43.9422 45.8677 42.7837 47.1636 42.0721L52.0589 39.4084Z" fill="#231F20"/>
<path id="Vector_13" d="M32.1581 59.3637C32.8594 59.7143 33.6343 59.897 34.4202 59.897C35.2062 59.897 35.9811 59.7143 36.6824 59.3637L40.5435 57.1682C41.2004 56.7407 41.7468 56.167 42.1389 55.4931C42.5309 54.8191 42.7577 54.0636 42.801 53.2873V47.9307C42.801 46.5095 41.7875 45.9265 40.5435 46.637L27.4585 54.1072C26.2145 54.8178 26.2145 55.9748 27.4585 56.6853L32.1581 59.3637Z" fill="#231F20"/>
<path id="Vector_14" d="M43.4791 53.2917C43.525 54.0661 43.7616 54.8195 44.17 55.4914C44.5785 56.1634 45.1472 56.7352 45.8308 57.1609L49.8527 59.364C50.5832 59.7145 51.3904 59.897 52.2092 59.897C53.0278 59.897 53.835 59.7145 54.5656 59.364L59.4609 56.6784C60.7567 55.9683 60.7567 54.8121 59.4609 54.102L45.8308 46.6368C44.535 45.9267 43.4791 46.5094 43.4791 47.9296V53.2917Z" fill="#231F20"/>
</g>
</svg>
