<svg width="88" height="89" viewBox="0 0 88 89" fill="none" xmlns="http://www.w3.org/2000/svg">
<g id="Black and White Collection 2">
<g id="Group" opacity="0.1">
<path id="Vector" opacity="0.1" d="M87.2059 85.6538V87.6882H85.1714" stroke="#20263C" stroke-miterlimit="10"/>
<path id="Vector_2" opacity="0.1" d="M81.2586 87.688H4.9875" stroke="#20263C" stroke-miterlimit="10" stroke-dasharray="5.77 5.77"/>
<path id="Vector_3" opacity="0.1" d="M3.03442 87.6882H1V85.6538" stroke="#20263C" stroke-miterlimit="10"/>
<path id="Vector_4" opacity="0.1" d="M1 81.7409V5.46973" stroke="#20263C" stroke-miterlimit="10" stroke-dasharray="5.77 5.77"/>
<path id="Vector_5" opacity="0.1" d="M1 3.51686V1.48242H3.03442" stroke="#20263C" stroke-miterlimit="10"/>
<path id="Vector_6" opacity="0.1" d="M6.94057 1.48193H83.2184" stroke="#20263C" stroke-miterlimit="10" stroke-dasharray="5.77 5.77"/>
<path id="Vector_7" opacity="0.1" d="M85.1714 1.48193H87.2059V3.51637" stroke="#20263C" stroke-miterlimit="10"/>
<path id="Vector_8" opacity="0.1" d="M87.2059 7.42236V83.7002" stroke="#20263C" stroke-miterlimit="10" stroke-dasharray="5.77 5.77"/>
</g>
<path id="Vector_9" d="M43.7232 55.9629C42.4032 55.9688 41.1006 55.649 39.9223 55.0298C38.7441 54.4106 37.7236 53.5097 36.9448 52.4009L31.5166 55.6444C31.7231 55.8921 31.9677 56.1025 32.2403 56.267L41.8998 62.0588C42.4644 62.3588 43.0892 62.5152 43.7232 62.5152C44.3571 62.5152 44.9819 62.3588 45.5465 62.0588L55.206 56.267C55.4787 56.1025 55.7232 55.8921 55.9298 55.6444L50.5155 52.343C49.7412 53.4645 48.7213 54.3778 47.5401 55.0073C46.3589 55.6368 45.0504 55.9645 43.7232 55.9629Z" fill="#414042"/>
<path id="Vector_10" d="M35.2242 47.2224C35.2291 45.1632 36.0295 43.178 37.4722 41.6461C38.915 40.1142 40.899 39.1432 43.045 38.9186V32.6769C42.7195 32.7414 42.4062 32.8535 42.1164 33.009L32.0465 38.5449C31.4992 38.8942 31.0441 39.3595 30.7169 39.9046C30.3896 40.4497 30.1991 41.0595 30.1603 41.6865V52.7583C30.1647 53.0777 30.2184 53.3949 30.3198 53.6994L35.9788 50.5855C35.4839 49.527 35.2269 48.3814 35.2242 47.2224Z" fill="#414042"/>
<path id="Vector_11" d="M55.4991 38.5411L45.9592 33.0088C45.6847 32.8533 45.388 32.7414 45.0795 32.6769V38.9006C46.3755 39.0484 47.6189 39.5002 48.7097 40.2198C49.8004 40.9394 50.7079 41.9066 51.3592 43.0436C52.0105 44.1806 52.3873 45.4556 52.4593 46.7659C52.5313 48.0762 52.2966 49.3852 51.7738 50.5875L57.1349 53.6994C57.231 53.395 57.2819 53.0781 57.2861 52.7589V41.6945C57.2514 41.0655 57.0719 40.4532 56.7617 39.906C56.4516 39.3587 56.0194 38.8915 55.4991 38.5411Z" fill="#414042"/>
<path id="Vector_12" d="M62.4479 32.9963L46.6992 23.8882C45.7757 23.4243 44.7565 23.1827 43.7232 23.1827C42.6898 23.1827 41.6708 23.4243 40.7472 23.8882L24.9985 32.9963C24.1341 33.5602 23.4143 34.3198 22.8973 35.2137C22.3804 36.1075 22.0807 37.1106 22.0225 38.1418V56.3578C22.0796 57.3912 22.3788 58.3967 22.8957 59.293C23.4127 60.1894 24.133 60.9514 24.9985 61.5176L40.7472 70.6258C41.6708 71.0897 42.6898 71.3311 43.7232 71.3311C44.7565 71.3311 45.7757 71.0897 46.6992 70.6258L62.4479 61.5176C63.3134 60.9514 64.0337 60.1894 64.5507 59.293C65.0676 58.3967 65.3667 57.3912 65.4238 56.3578V38.1418C65.3657 37.1106 65.066 36.1075 64.549 35.2137C64.032 34.3198 63.3123 33.5602 62.4479 32.9963ZM60.4258 54.2625C60.3796 55.0564 60.1481 55.8283 59.75 56.5164C59.3519 57.2046 58.7982 57.7897 58.1333 58.225L46.0014 65.2377C45.2928 65.596 44.51 65.7827 43.7161 65.7827C42.9222 65.7827 42.1393 65.596 41.4307 65.2377L29.3131 58.225C28.6481 57.7897 28.0944 57.2046 27.6964 56.5164C27.2982 55.8283 27.0668 55.0564 27.0205 54.2625V40.2513C27.0668 39.4574 27.2982 38.6855 27.6964 37.9974C28.0944 37.3092 28.6481 36.724 29.3131 36.2888L41.4164 29.2761C42.1251 28.9178 42.9078 28.7311 43.7018 28.7311C44.4957 28.7311 45.2786 28.9178 45.9872 29.2761L58.1191 36.2888C58.7866 36.7225 59.3431 37.307 59.7438 37.9952C60.1444 38.6834 60.378 39.4562 60.4258 40.2513V54.2625Z" fill="#414042"/>
<path id="Vector_13" d="M37.6199 47.2569C37.6199 48.3969 37.9778 49.5114 38.6484 50.4593C39.319 51.4073 40.2723 52.1461 41.3876 52.5824C42.5028 53.0186 43.73 53.1328 44.9139 52.9104C46.0978 52.688 47.1853 52.139 48.0388 51.3328C48.8924 50.5267 49.4737 49.4996 49.7092 48.3815C49.9447 47.2633 49.8239 46.1043 49.3619 45.051C48.8999 43.9977 48.1178 43.0975 47.114 42.4641C46.1104 41.8307 44.9303 41.4927 43.7232 41.4927C42.1045 41.4927 40.5521 42.1 39.4075 43.181C38.2629 44.262 37.6199 45.7282 37.6199 47.2569Z" fill="#414042"/>
</g>
</svg>
