<svg width="55" height="55" viewBox="0 0 55 55" fill="none" xmlns="http://www.w3.org/2000/svg">
<g id="Black and White Collection 11">
<path id="Vector" d="M8.44488 10.3595L0 18.8044L8.44488 27.2493L16.8898 18.8044L8.44488 10.3595Z" fill="#414042"/>
<path id="Vector_2" d="M16.9038 18.8006L8.45576 10.3525C10.6945 12.5921 11.9522 15.6292 11.9522 18.7959C11.9522 21.9626 10.6945 24.9997 8.45576 27.2392L0.00762939 35.6779L8.45576 44.126L16.9038 35.6779L25.3519 27.2392L16.9038 18.8006Z" fill="url(#paint0_linear_2759_1532)"/>
<path id="Vector_3" d="M45.9467 44.1443L54.3913 35.6994L45.9467 27.2545L37.5018 35.6994L45.9467 44.1443Z" fill="#414042"/>
<path id="Vector_4" d="M37.5031 35.6968L45.9513 44.1354C43.7125 41.8959 42.4548 38.8588 42.4548 35.6921C42.4548 32.5254 43.7125 29.4883 45.9513 27.2487L54.3995 18.8006L45.9513 10.3525L37.5031 18.8006L29.0646 27.2487L37.5031 35.6968Z" fill="url(#paint1_linear_2759_1532)"/>
<path id="Vector_5" d="M10.3137 46.001L18.7586 54.4459L27.2035 46.001L18.7586 37.556L10.3137 46.001Z" fill="#414042"/>
<path id="Vector_6" d="M18.76 37.5435L10.312 45.9916C12.5515 43.7528 15.5885 42.4951 18.7553 42.4951C21.9219 42.4951 24.959 43.7528 27.1986 45.9916L35.6373 54.4398L44.0854 45.9916L35.6373 37.5435L27.1986 29.1049L18.76 37.5435Z" fill="url(#paint2_linear_2759_1532)"/>
<path id="Vector_7" d="M44.0989 8.48999L35.654 0.0450439L27.2091 8.48992L35.654 16.9349L44.0989 8.48999Z" fill="#414042"/>
<path id="Vector_8" d="M35.6562 16.9442L44.0949 8.49611C41.8552 10.7349 38.8181 11.9926 35.6515 11.9926C32.4847 11.9926 29.4477 10.7349 27.2081 8.49611L18.76 0.0479736L10.312 8.49611L18.76 16.9442L27.2081 25.3923L35.6562 16.9442Z" fill="url(#paint3_linear_2759_1532)"/>
</g>
<defs>
<linearGradient id="paint0_linear_2759_1532" x1="12.5946" y1="42.7432" x2="12.8029" y2="13.5253" gradientUnits="userSpaceOnUse">
<stop stop-color="#414042"/>
<stop offset="1" stop-color="#E6E7E8"/>
</linearGradient>
<linearGradient id="paint1_linear_2759_1532" x1="99555.2" y1="12771.2" x2="99545" y2="13813.3" gradientUnits="userSpaceOnUse">
<stop stop-color="#414042"/>
<stop offset="1" stop-color="#E6E7E8"/>
</linearGradient>
<linearGradient id="paint2_linear_2759_1532" x1="64149.8" y1="76826.5" x2="63368.2" y2="76822.4" gradientUnits="userSpaceOnUse">
<stop stop-color="#414042"/>
<stop offset="1" stop-color="#E6E7E8"/>
</linearGradient>
<linearGradient id="paint3_linear_2759_1532" x1="52312.6" y1="-39770.5" x2="53094.5" y2="-39766.3" gradientUnits="userSpaceOnUse">
<stop stop-color="#414042"/>
<stop offset="1" stop-color="#E6E7E8"/>
</linearGradient>
</defs>
</svg>
