<svg width="37" height="37" viewBox="0 0 37 37" fill="none" xmlns="http://www.w3.org/2000/svg">
<g id="jam:pinterest" clip-path="url(#clip0_2759_1481)">
<rect id="Rectangle 20" x="0.776535" y="0.503906" width="35.5709" height="35.5709" fill="#F9EFCF"/>
<path id="Vector" d="M16.5908 22.8794C15.8408 26.9197 14.9279 30.794 12.2185 32.8171C11.3841 26.7107 13.4472 22.1235 14.4047 17.2548C12.7714 14.4239 14.6018 8.72515 18.0462 10.1287C22.2851 11.8569 14.375 20.6548 19.6855 21.7545C25.2301 22.9017 27.4948 11.8495 24.0563 8.25383C19.0882 3.06492 9.59518 8.13675 10.7631 15.5666C11.0477 17.3837 12.8692 17.9351 11.4908 20.4428C8.31166 19.7151 7.3631 17.1332 7.48612 13.6903C7.68176 8.0582 12.4023 4.11278 17.1362 3.56736C23.124 2.87669 28.7427 5.83056 29.5179 11.6301C30.3923 18.1752 26.816 25.2656 20.4147 24.7543C18.6791 24.6165 17.9499 23.7316 16.5908 22.8794Z" fill="#F38281"/>
</g>
<defs>
<clipPath id="clip0_2759_1481">
<rect width="35.5709" height="35.5709" fill="white" transform="translate(0.776535 0.503906)"/>
</clipPath>
</defs>
</svg>
